<svg width="31" height="37" viewBox="0 0 31 37" fill="none" xmlns="http://www.w3.org/2000/svg">
<path d="M30.3977 4.87142C30.5458 2.57474 30.0107 0.955052 29.9878 0.887195C29.9086 0.651898 29.7153 0.476437 29.4797 0.417107L29.4687 0.413855C28.3512 0.0877204 22.5196 -1.28207 17.449 3.78852C15.3406 5.89694 14.3708 8.14339 13.951 10.0255C13.6396 9.53154 13.2505 9.03587 12.7658 8.55118C9.63543 5.42085 6.02475 6.26932 5.33259 6.4713L5.33115 6.47174C5.0978 6.53237 4.90687 6.70689 4.82825 6.94045C4.80679 7.00426 4.61673 7.59005 4.56614 8.49163C4.54374 8.89025 4.84877 9.23135 5.24725 9.25375C5.64651 9.27629 5.98703 8.97112 6.00936 8.57264C6.02771 8.24485 6.06948 7.97002 6.10894 7.76934C7.11004 7.56945 9.55291 7.38257 11.7436 9.57338C13.436 11.2658 13.709 13.1055 13.6603 14.2962L10.8923 11.5282C10.61 11.246 10.1524 11.246 9.87008 11.5282C9.58781 11.8105 9.58781 12.2681 9.87008 12.5504L12.6329 15.3132C12.576 15.3153 12.518 15.3169 12.4583 15.3175H12.3944C11.2024 15.3165 9.48816 14.9745 7.91537 13.4017C7.81347 13.2998 7.71461 13.1952 7.62139 13.0906C7.35567 12.7926 6.89881 12.7664 6.60093 13.0322C6.3029 13.2977 6.27674 13.7546 6.54246 14.0526C6.6539 14.1776 6.77183 14.3024 6.89317 14.4238C7.2373 14.7678 7.58677 15.0632 7.93741 15.3174H1.29908C0.899889 15.3174 0.576355 15.6411 0.576355 16.0401V20.0875C0.576355 20.4866 0.899961 20.8102 1.29908 20.8102H1.76064L5.56182 36.4479C5.64059 36.7718 5.93073 36.9999 6.2641 36.9999H22.4976C22.831 36.9999 23.1211 36.7719 23.1998 36.4479L27.001 20.8102H27.4626C27.8618 20.8102 28.1854 20.4866 28.1854 20.0875V16.0401C28.1854 15.641 27.8618 15.3174 27.4626 15.3174H23.4961C24.5353 14.7618 25.6003 14.0036 26.6322 12.9717C29.4975 10.1065 30.2614 6.98526 30.3977 4.87142ZM21.9296 35.5545H6.83232L3.24838 20.8103H25.5136L21.9296 35.5545ZM26.7401 16.7629V19.3649H26.433H2.32887H2.02188V16.7629H26.7401V16.7629ZM18.4996 15.2905C17.6062 15.353 16.8251 15.2965 16.2295 15.2134L21.6232 9.81966C21.9055 9.53739 21.9055 9.0798 21.6232 8.79746C21.341 8.51527 20.8834 8.51527 20.601 8.79746L15.2077 14.1908C14.9402 12.2493 14.9631 8.31856 18.4711 4.81071C22.5731 0.708627 27.1943 1.34955 28.7154 1.71008C29.0299 3.03948 29.7679 7.79174 25.61 11.9496C23.5815 13.9782 21.1892 15.1022 18.4996 15.2905Z" fill="#AFB5C1"/>
</svg>
