<svg width="22" height="17" viewBox="0 0 22 17" fill="none" xmlns="http://www.w3.org/2000/svg">
<path d="M3.708 6.826C2.652 6.826 1.80133 6.518 1.156 5.902C0.525333 5.27133 0.21 4.45733 0.21 3.46C0.21 2.46267 0.525333 1.64867 1.156 1.018C1.78667 0.387332 2.63733 0.0719992 3.708 0.0719992C4.74933 0.0719992 5.59267 0.387332 6.238 1.018C6.88333 1.64867 7.206 2.46267 7.206 3.46C7.206 4.45733 6.88333 5.27133 6.238 5.902C5.59267 6.518 4.74933 6.826 3.708 6.826ZM3.73 5.528C4.434 5.528 4.94733 5.33733 5.27 4.956C5.60733 4.57467 5.776 4.076 5.776 3.46C5.776 2.81467 5.6 2.30133 5.248 1.92C4.91067 1.53867 4.40467 1.348 3.73 1.348C3.01133 1.348 2.48333 1.53867 2.146 1.92C1.80867 2.30133 1.64 2.81467 1.64 3.46C1.64 4.076 1.80867 4.57467 2.146 4.956C2.48333 5.33733 3.01133 5.528 3.73 5.528ZM17.2762 1.81C15.5895 1.81 14.2622 2.37467 13.2942 3.504C12.3262 4.63333 11.8422 6.18067 11.8422 8.146C11.8422 10.0967 12.2895 11.644 13.1842 12.788C14.0935 13.9173 15.4502 14.482 17.2542 14.482C17.9435 14.482 18.5962 14.4233 19.2122 14.306C19.8282 14.1887 20.4295 14.042 21.0162 13.866V15.582C20.4295 15.802 19.8208 15.9633 19.1902 16.066C18.5742 16.1687 17.8335 16.22 16.9682 16.22C15.3695 16.22 14.0348 15.89 12.9642 15.23C11.8935 14.57 11.0868 13.6313 10.5442 12.414C10.0162 11.1967 9.75216 9.76667 9.75216 8.124C9.75216 6.54 10.0382 5.14667 10.6102 3.944C11.1968 2.72667 12.0548 1.78067 13.1842 1.106C14.3135 0.416666 15.6848 0.0719992 17.2982 0.0719992C18.9555 0.0719992 20.4002 0.379999 21.6322 0.995999L20.8402 2.668C20.3562 2.448 19.8135 2.25 19.2122 2.074C18.6255 1.898 17.9802 1.81 17.2762 1.81Z" fill="#9BA2B0"/>
</svg>
