<svg width="28" height="28" viewBox="0 0 28 28" fill="none" xmlns="http://www.w3.org/2000/svg">
<g clip-path="url(#clip0_37_117)">
<path d="M14 21.7682C9.7097 21.7682 6.23181 18.2903 6.23181 14C6.23181 9.70971 9.7097 6.23182 14 6.23182C18.2903 6.23182 21.7682 9.70971 21.7682 14C21.7633 18.2882 18.2882 21.7633 14 21.7682ZM14 7.42331C10.3678 7.42331 7.4233 10.3678 7.4233 14C7.4233 17.6322 10.3678 20.5767 14 20.5767C17.6322 20.5767 20.5767 17.6322 20.5767 14C20.5725 10.3695 17.6305 7.4275 14 7.42331Z" fill="#9BA2B0"/>
<path d="M14.5957 24.366V27.4043C14.5957 27.7333 14.329 28 14 28C13.6709 28 13.4042 27.7333 13.4042 27.4043V24.366C13.4042 24.0369 13.6709 23.7702 14 23.7702C14.329 23.7702 14.5957 24.0369 14.5957 24.366Z" fill="#9BA2B0"/>
<path d="M14 4.2298C13.6709 4.2298 13.4042 3.96311 13.4042 3.63405V0.595756C13.4042 0.2667 13.6709 1.14441e-05 14 1.14441e-05C14.329 1.14441e-05 14.5957 0.2667 14.5957 0.595756V3.63405C14.5957 3.96311 14.329 4.2298 14 4.2298Z" fill="#9BA2B0"/>
<path d="M27.4042 14.5957H24.3659C24.0369 14.5957 23.7702 14.3291 23.7702 14C23.7702 13.6709 24.0369 13.4043 24.3659 13.4043H27.4042C27.7333 13.4043 28 13.6709 28 14C28 14.3291 27.7333 14.5957 27.4042 14.5957Z" fill="#9BA2B0"/>
<path d="M4.22979 14C4.22979 14.3291 3.9631 14.5957 3.63404 14.5957H0.595745C0.266689 14.5957 0 14.3291 0 14C0 13.6709 0.266689 13.4043 0.595745 13.4043H3.63404C3.9631 13.4043 4.22979 13.6709 4.22979 14Z" fill="#9BA2B0"/>
<path d="M21.76 20.9176L23.8733 23.0309C24.1043 23.2638 24.1034 23.6397 23.8714 23.8714C23.6396 24.1035 23.2638 24.1044 23.0308 23.8733L20.9176 21.76C20.7661 21.6099 20.7063 21.39 20.7612 21.1836C20.8163 20.9774 20.9774 20.8164 21.1836 20.7612C21.39 20.7063 21.6099 20.7661 21.76 20.9176Z" fill="#9BA2B0"/>
<path d="M6.23998 7.08239L4.12672 4.96913C3.97499 4.81879 3.91541 4.59888 3.97033 4.3927C4.02525 4.18651 4.18652 4.02524 4.39271 3.97032C4.59889 3.9154 4.81881 3.97498 4.96914 4.12671L7.0824 6.23997C7.2339 6.39007 7.29371 6.60998 7.23879 6.8164C7.18363 7.02258 7.0226 7.18362 6.81641 7.23877C6.61 7.29369 6.39008 7.23389 6.23998 7.08239Z" fill="#9BA2B0"/>
<path d="M21.76 7.08239C21.6099 7.23389 21.39 7.29369 21.1836 7.23877C20.9774 7.18362 20.8163 7.02258 20.7612 6.8164C20.7063 6.60998 20.7661 6.39007 20.9176 6.23997L23.0308 4.12671C23.2638 3.89562 23.6396 3.89656 23.8714 4.12857C24.1034 4.36035 24.1043 4.73618 23.8733 4.96913L21.76 7.08239Z" fill="#9BA2B0"/>
<path d="M6.23997 20.9176C6.39007 20.7661 6.60999 20.7063 6.8164 20.7612C7.02259 20.8164 7.18362 20.9774 7.23878 21.1836C7.2937 21.39 7.23389 21.6099 7.08239 21.76L4.96913 23.8733C4.73619 24.1044 4.36036 24.1035 4.12857 23.8714C3.89656 23.6397 3.89563 23.2638 4.12671 23.0309L6.23997 20.9176Z" fill="#9BA2B0"/>
</g>
<defs>
<clipPath id="clip0_37_117">
<rect width="28" height="28" fill="white" transform="matrix(1 0 0 -1 0 28)"/>
</clipPath>
</defs>
</svg>
