<svg width="25" height="21" viewBox="0 0 25 21" fill="none" xmlns="http://www.w3.org/2000/svg">
<path d="M23.9583 9.45014H3.1776L11.1349 1.81043C11.5516 1.41039 11.5677 0.745747 11.1708 0.325752C10.7745 -0.0937178 10.1151 -0.110518 9.69792 0.289527L0.610417 9.01492C0.217187 9.41182 0 9.93891 0 10.5001C0 11.0608 0.217187 11.5884 0.628646 12.0027L9.69844 20.7102C9.9 20.9039 10.1583 21 10.4167 21C10.6917 21 10.9667 20.8908 11.1714 20.674C11.5682 20.254 11.5521 19.5899 11.1354 19.1898L3.14479 11.5501H23.9583C24.5333 11.5501 25 11.0797 25 10.5001C25 9.92054 24.5333 9.45014 23.9583 9.45014Z" fill="#6E7686"/>
</svg>
